<?xml version="1.0" encoding="utf-8"?>
<!-- Generator: Adobe Illustrator 27.5.0, SVG Export Plug-In . SVG Version: 6.00 Build 0)  -->
<svg version="1.1" xmlns="http://www.w3.org/2000/svg" xmlns:xlink="http://www.w3.org/1999/xlink" x="0px" y="0px"
	 viewBox="0 0 500 500" style="enable-background:new 0 0 500 500;" xml:space="preserve">
<g id="BACKGROUND">
	<rect style="fill:#DDECF0;" width="500" height="500"/>
	<g>
		
			<ellipse transform="matrix(0.1877 -0.9822 0.9822 0.1877 -42.4881 448.622)" style="fill:#A5CBD6;" cx="250" cy="250" rx="40.504" ry="40.504"/>
		<path style="fill:#A5CBD6;" d="M250,347.183c-53.588,0-97.184-43.597-97.184-97.183s43.597-97.183,97.184-97.183
			c53.586,0,97.182,43.597,97.182,97.183S303.586,347.183,250,347.183z M250,163.113c-47.91,0-86.888,38.977-86.888,86.887
			S202.09,336.888,250,336.888S336.887,297.91,336.887,250S297.91,163.113,250,163.113z"/>
		<path style="fill:#A5CBD6;" d="M250,398.443c-81.851,0-148.443-66.591-148.443-148.443c0-81.851,66.592-148.442,148.443-148.442
			S398.441,168.149,398.441,250C398.441,331.852,331.851,398.443,250,398.443z M250,108.422
			c-78.067,0-141.579,63.511-141.579,141.578S171.933,391.578,250,391.578c78.065,0,141.577-63.512,141.577-141.578
			S328.065,108.422,250,108.422z"/>
		<path style="fill:#A5CBD6;" d="M250,459.785c-115.676,0-209.785-94.109-209.785-209.785S134.324,40.215,250,40.215
			S459.786,134.324,459.786,250S365.676,459.785,250,459.785z M250,45.362c-112.838,0-204.637,91.8-204.637,204.637
			S137.162,454.638,250,454.638S454.638,362.837,454.638,250S362.837,45.362,250,45.362z"/>
	</g>
</g>
<g id="OBJECTS">
	<g>
		
			<rect x="340.347" y="113.806" transform="matrix(0.8297 -0.5582 0.5582 0.8297 -31.2801 234.0217)" style="fill:#109E77;" width="55.188" height="108.951"/>
		<path style="fill:#AEE8D8;" d="M373.307,212.292l-44.109-65.57c3.428-2.306,4.338-6.955,2.032-10.383l20.961-14.101
			c2.306,3.428,6.955,4.338,10.384,2.032l44.109,65.57c-3.428,2.306-4.338,6.955-2.032,10.383l-20.961,14.101
			C381.384,210.895,376.735,209.986,373.307,212.292z"/>
		<path style="fill:#679F42;" d="M359.235,174.138c-3.234-4.808-1.959-11.328,2.849-14.563c4.808-3.234,11.329-1.959,14.563,2.849
			c3.235,4.809,1.959,11.329-2.85,14.563C368.989,180.222,362.47,178.946,359.235,174.138z"/>
		
			<rect x="353.729" y="107.725" transform="matrix(0.9487 -0.3161 0.3161 0.9487 -31.7203 128.8601)" style="fill:#1ABF92;" width="55.188" height="108.951"/>
		<path style="fill:#BFF2E4;" d="M374.733,206.045l-24.982-74.972c3.921-1.306,6.04-5.543,4.733-9.463l23.967-7.986
			c1.307,3.92,5.543,6.039,9.463,4.733l24.982,74.972c-3.921,1.306-6.04,5.543-4.733,9.463l-23.967,7.986
			C382.89,206.858,378.653,204.739,374.733,206.045z"/>
		<path style="fill:#1ABF92;" d="M371.369,165.518c-1.832-5.498,1.14-11.44,6.638-13.272c5.498-1.832,11.44,1.14,13.272,6.638
			c1.832,5.498-1.14,11.44-6.639,13.272C379.142,173.988,373.201,171.016,371.369,165.518z"/>
	</g>
	<g>
		<path style="fill:#FFC226;" d="M331.89,110.542c-10.219,0-18.504,8.285-18.504,18.504c0,10.219,8.285,18.505,18.504,18.505
			c10.22,0,18.505-8.285,18.505-18.505C350.395,118.826,342.11,110.542,331.89,110.542z"/>
		<path style="fill:#FF9A1F;" d="M345.811,129.046c0,7.676-6.245,13.921-13.921,13.921c-7.676,0-13.92-6.245-13.92-13.921
			c0-7.676,6.244-13.921,13.92-13.921C339.566,115.125,345.811,121.37,345.811,129.046z M320.973,129.046
			c0,6.02,4.897,10.917,10.917,10.917c6.02,0,10.918-4.897,10.918-10.917c0-6.02-4.897-10.918-10.918-10.918
			C325.87,118.128,320.973,123.026,320.973,129.046z"/>
	</g>
	<g>
		<path style="fill:#FFC226;" d="M282.609,89.918c-10.219,0-18.504,8.285-18.504,18.504c0,10.219,8.285,18.504,18.504,18.504
			c10.22,0,18.505-8.285,18.505-18.504C301.114,98.202,292.829,89.918,282.609,89.918z"/>
		<path style="fill:#FF9A1F;" d="M296.53,108.422c0,7.676-6.245,13.921-13.921,13.921c-7.676,0-13.92-6.245-13.92-13.921
			c0-7.676,6.244-13.921,13.92-13.921C290.285,94.501,296.53,100.746,296.53,108.422z M271.692,108.422
			c0,6.02,4.897,10.917,10.917,10.917c6.021,0,10.918-4.897,10.918-10.917c0-6.02-4.897-10.918-10.918-10.918
			C276.589,97.504,271.692,102.402,271.692,108.422z"/>
	</g>
	<g>
		<path style="fill:#FFC226;" d="M229.195,85.333c-10.219,0-18.504,8.285-18.504,18.505c0,10.219,8.285,18.504,18.504,18.504
			c10.22,0,18.505-8.285,18.505-18.504C247.7,93.618,239.415,85.333,229.195,85.333z"/>
		<path style="fill:#FF9A1F;" d="M243.116,103.838c0,7.676-6.245,13.921-13.921,13.921c-7.676,0-13.92-6.245-13.92-13.921
			c0-7.676,6.244-13.921,13.92-13.921C236.871,89.917,243.116,96.161,243.116,103.838z M218.278,103.838
			c0,6.02,4.897,10.917,10.917,10.917c6.021,0,10.918-4.897,10.918-10.917c0-6.02-4.897-10.918-10.918-10.918
			C223.175,92.92,218.278,97.818,218.278,103.838z"/>
	</g>
	<g>
		<g>
			<g>
				<g>
					<g>
						<path style="fill:#0074AD;" d="M404.086,320.859c-16.012,23.877-35.109,42.976-58.987,58.987
							c-37.504-37.504-75.008-75.008-112.512-112.512c16.012-23.877,35.109-42.975,58.987-58.987
							C329.078,245.851,366.582,283.355,404.086,320.859z"/>
					</g>
					<g>
						
							<rect x="275.809" y="227.234" transform="matrix(0.7071 -0.7071 0.7071 0.7071 -114.3799 310.4192)" style="fill:#004669;" width="83.42" height="132.088"/>
						
							<rect x="279.454" y="231.869" transform="matrix(0.7071 -0.7071 0.7071 0.7071 -114.3799 310.419)" style="fill:#1ABF92;" width="76.13" height="122.819"/>
						
							<rect x="239.351" y="248.48" transform="matrix(0.7071 -0.7071 0.7071 0.7071 -97.7684 270.3157)" style="fill:#FFFFFF;" width="76.13" height="9.39"/>
					</g>
					<path style="fill:#004669;" d="M374.051,341.071c2.413,2.413,2.413,6.326,0,8.739c-2.413,2.413-6.326,2.413-8.739,0
						c-2.413-2.413-2.413-6.326,0-8.739C367.725,338.658,371.637,338.658,374.051,341.071z"/>
				</g>
				<g>
					<path style="fill:#0074AD;" d="M277.39,279.69l28.081-28.081c1.206-1.206,3.162-1.206,4.368,0l48.355,48.355
						c1.206,1.206,1.206,3.162,0,4.368l-28.081,28.081c-1.206,1.206-3.162,1.206-4.368,0l-48.355-48.355
						C276.183,282.852,276.183,280.896,277.39,279.69z"/>
					
						<rect x="314.375" y="249.322" transform="matrix(0.7071 -0.7071 0.7071 0.7071 -107.9958 312.481)" style="fill:#004669;" width="17.65" height="74.562"/>
					<path style="fill:#DDECF0;" d="M300.321,267.632l4.368-4.368c0.964-0.964,2.527-0.964,3.491,0l4.482,4.482
						c0.964,0.964,0.964,2.527,0,3.492l-4.368,4.368c-0.964,0.964-2.527,0.964-3.491,0l-4.482-4.482
						C299.357,270.159,299.357,268.596,300.321,267.632z"/>
				</g>
				<path style="fill:#DDECF0;" d="M308.174,242.892l-38.713,38.713c-0.717,0.717-1.88,0.717-2.597,0l-0.026-0.026
					c-0.717-0.717-0.717-1.88,0-2.597l38.713-38.713c0.717-0.717,1.88-0.717,2.597,0l0.026,0.026
					C308.892,241.013,308.892,242.175,308.174,242.892z"/>
				<g>
					<path style="fill:#870048;" d="M365.054,322.687l-18.127,18.127c-0.863,0.863-2.262,0.863-3.125,0l-6.151-6.151
						c-0.863-0.863-0.863-2.262,0-3.125l18.127-18.127c0.863-0.863,2.262-0.863,3.125,0l6.151,6.151
						C365.917,320.425,365.917,321.824,365.054,322.687z"/>
				</g>
			</g>
			<g>
				<path style="fill:#FFFFFF;" d="M275.045,236.324c0.343,0.343,0.343,0.9,0,1.243l-11.563,11.563c-0.343,0.343-0.9,0.343-1.243,0
					l0,0c-0.344-0.344-0.344-0.9,0-1.244l11.563-11.563C274.145,235.981,274.702,235.981,275.045,236.324L275.045,236.324z"/>
				<path style="fill:#FFFFFF;" d="M261.64,249.729c0.343,0.343,0.343,0.9,0,1.243c-0.343,0.343-0.9,0.343-1.243,0
					c-0.344-0.344-0.344-0.901,0-1.244C260.74,249.386,261.296,249.386,261.64,249.729z"/>
			</g>
		</g>
		<g>
			<path style="fill:#FFBB94;" d="M459.861,363.309L425.173,303.8l-31.126-23.96l-36.462-5.934l23.736,24.034l14.259,33.81
				c1.905,6.688-9.923,4.02-16.681,2.766l-23.006-8.013c0,0-9.351-0.152-12.345,7.383c-0.874,2.2,0.633,4.928,3.083,5.708
				c6.901,2.197,19.937,8.871,26.72,15.654c9.181,9.181,23.653,26.571,23.653,26.571l26.656,17.69l0.189-0.189l18.532,18.532
				l36.013-36.013L459.861,363.309z"/>
			<g>
				<polygon style="fill:#FFFFFF;" points="500,395.457 471.969,369.577 426.272,415.273 468.449,460.955 500,429.404 				"/>
				<polygon style="fill:#004669;" points="500,391.378 484.428,375.805 430.116,430.116 500,500 				"/>
				<path style="fill:#FFFFFF;" d="M445.912,429.114c1.613,1.613,1.614,4.227,0.001,5.841c-1.613,1.612-4.227,1.612-5.84-0.001
					c-1.612-1.612-1.613-4.227,0-5.84C441.686,427.501,444.3,427.502,445.912,429.114z"/>
			</g>
		</g>
	</g>
	<g>
		<g>
			<g>
				<g>
					<path style="fill:#0074AD;" d="M212.647,369.03h-100.27c-3.916,0-7.09-3.174-7.09-7.09V151.42c0-3.916,3.174-7.09,7.09-7.09
						h100.27c3.916,0,7.09,3.174,7.09,7.09v210.52C219.737,365.855,216.563,369.03,212.647,369.03z"/>
				</g>
				<path style="fill:#004669;" d="M206.967,155.898h-86.619c-1.614,0-2.922-1.308-2.922-2.922v-0.059
					c0-1.614,1.308-2.922,2.922-2.922h86.619c1.614,0,2.922,1.308,2.922,2.922v0.059
					C209.889,154.589,208.58,155.898,206.967,155.898z"/>
				<path style="fill:#004669;" d="M198.412,250.73h-73.769c-3.986,0-7.217,3.231-7.217,7.217V369.03h88.204V257.947
					C205.629,253.961,202.398,250.73,198.412,250.73z"/>
				<path style="fill:#004669;" d="M206.333,242.457h-87.642c-1.964,0-3.556-1.592-3.556-3.556v-73.934
					c0-1.964,1.592-3.556,3.556-3.556h87.642c1.964,0,3.556,1.592,3.556,3.556v73.934
					C209.889,240.865,208.297,242.457,206.333,242.457z"/>
				<rect x="119.395" y="165.34" style="fill:#1ABF92;" width="86.234" height="73.188"/>
				<rect x="119.395" y="165.34" style="fill:#BEDDF4;" width="86.234" height="11.55"/>
			</g>
			<g>
				<circle style="fill:#FFFFFF;" cx="162.512" cy="205.299" r="18.876"/>
				<polygon style="fill:#FFC226;" points="143.636,191.183 157.64,205.187 183.134,179.693 159.005,216.953 				"/>
			</g>
			<g>
				<g>
					<path style="fill:#DDECF0;" d="M139.481,276.814h-14.383c-2.135,0-3.866-1.731-3.866-3.866v-6.649
						c0-2.135,1.731-3.866,3.866-3.866h14.383c2.135,0,3.866,1.731,3.866,3.866v6.649
						C143.347,275.083,141.616,276.814,139.481,276.814z"/>
					<path style="fill:#DDECF0;" d="M168.719,276.814h-14.383c-2.135,0-3.866-1.731-3.866-3.866v-6.649
						c0-2.135,1.731-3.866,3.866-3.866h14.383c2.135,0,3.866,1.731,3.866,3.866v6.649
						C172.585,275.083,170.854,276.814,168.719,276.814z"/>
					<path style="fill:#DDECF0;" d="M197.957,276.814h-14.383c-2.135,0-3.866-1.731-3.866-3.866v-6.649
						c0-2.135,1.731-3.866,3.866-3.866h14.383c2.135,0,3.866,1.731,3.866,3.866v6.649
						C201.824,275.083,200.093,276.814,197.957,276.814z"/>
				</g>
				<g>
					<path style="fill:#DDECF0;" d="M139.481,297.44h-14.383c-2.135,0-3.866-1.731-3.866-3.866v-6.649
						c0-2.135,1.731-3.866,3.866-3.866h14.383c2.135,0,3.866,1.731,3.866,3.866v6.649
						C143.347,295.709,141.616,297.44,139.481,297.44z"/>
					<path style="fill:#DDECF0;" d="M168.719,297.44h-14.383c-2.135,0-3.866-1.731-3.866-3.866v-6.649
						c0-2.135,1.731-3.866,3.866-3.866h14.383c2.135,0,3.866,1.731,3.866,3.866v6.649
						C172.585,295.709,170.854,297.44,168.719,297.44z"/>
					<path style="fill:#DDECF0;" d="M197.957,297.44h-14.383c-2.135,0-3.866-1.731-3.866-3.866v-6.649
						c0-2.135,1.731-3.866,3.866-3.866h14.383c2.135,0,3.866,1.731,3.866,3.866v6.649
						C201.824,295.709,200.093,297.44,197.957,297.44z"/>
				</g>
				<g>
					<path style="fill:#DDECF0;" d="M139.481,318.065h-14.383c-2.135,0-3.866-1.731-3.866-3.866v-6.65
						c0-2.135,1.731-3.866,3.866-3.866h14.383c2.135,0,3.866,1.731,3.866,3.866v6.65
						C143.347,316.334,141.616,318.065,139.481,318.065z"/>
					<path style="fill:#DDECF0;" d="M168.719,318.065h-14.383c-2.135,0-3.866-1.731-3.866-3.866v-6.65
						c0-2.135,1.731-3.866,3.866-3.866h14.383c2.135,0,3.866,1.731,3.866,3.866v6.65
						C172.585,316.334,170.854,318.065,168.719,318.065z"/>
					<path style="fill:#DDECF0;" d="M197.957,318.065h-14.383c-2.135,0-3.866-1.731-3.866-3.866v-6.65
						c0-2.135,1.731-3.866,3.866-3.866h14.383c2.135,0,3.866,1.731,3.866,3.866v6.65
						C201.824,316.334,200.093,318.065,197.957,318.065z"/>
				</g>
				<g>
					<path style="fill:#870048;" d="M139.481,338.691h-14.383c-2.135,0-3.866-1.731-3.866-3.866v-6.65
						c0-2.135,1.731-3.866,3.866-3.866h14.383c2.135,0,3.866,1.731,3.866,3.866v6.65
						C143.347,336.96,141.616,338.691,139.481,338.691z"/>
					<path style="fill:#FFC226;" d="M168.719,338.691h-14.383c-2.135,0-3.866-1.731-3.866-3.866v-6.65
						c0-2.135,1.731-3.866,3.866-3.866h14.383c2.135,0,3.866,1.731,3.866,3.866v6.65
						C172.585,336.96,170.854,338.691,168.719,338.691z"/>
					<path style="fill:#1ABF92;" d="M197.957,338.691h-14.383c-2.135,0-3.866-1.731-3.866-3.866v-6.65
						c0-2.135,1.731-3.866,3.866-3.866h14.383c2.135,0,3.866,1.731,3.866,3.866v6.65
						C201.824,336.96,200.093,338.691,197.957,338.691z"/>
				</g>
			</g>
			<polygon style="fill:#FFFFFF;" points="192.404,58.505 188.678,55.006 184.951,58.505 181.224,55.006 177.497,58.505 
				173.77,55.006 170.043,58.505 166.316,55.006 162.589,58.505 158.862,55.006 155.135,58.505 151.408,55.006 147.681,58.505 
				143.954,55.006 140.227,58.505 136.5,55.006 132.773,58.505 129.046,55.006 129.027,55.039 129.027,59.109 129.027,60.072 
				129.027,152.669 195.996,152.669 195.996,60.072 195.996,59.109 195.996,55.24 			"/>
			<g>
				<g>
					<g>
						<path style="fill:#A5CBD6;" d="M180.057,82.688c0,0.854-0.693,1.546-1.546,1.546h-28.748c-0.854,0-1.546-0.692-1.546-1.546
							l0,0c0-0.854,0.692-1.547,1.546-1.547h28.748C179.365,81.141,180.057,81.834,180.057,82.688L180.057,82.688z"/>
					</g>
					<g>
						<path style="fill:#A5CBD6;" d="M146.728,82.688c0,0.854-0.692,1.546-1.546,1.546c-0.853,0-1.546-0.692-1.546-1.546
							c0-0.854,0.693-1.547,1.546-1.547C146.035,81.141,146.728,81.834,146.728,82.688z"/>
					</g>
				</g>
				<g>
					<g>
						<path style="fill:#A5CBD6;" d="M180.057,91.885c0,0.853-0.693,1.546-1.546,1.546h-28.748c-0.854,0-1.546-0.692-1.546-1.546
							l0,0c0-0.854,0.692-1.547,1.546-1.547h28.748C179.365,90.338,180.057,91.031,180.057,91.885L180.057,91.885z"/>
					</g>
					<g>
						<path style="fill:#A5CBD6;" d="M146.728,91.885c0,0.853-0.692,1.546-1.546,1.546c-0.853,0-1.546-0.692-1.546-1.546
							c0-0.854,0.693-1.547,1.546-1.547C146.035,90.338,146.728,91.031,146.728,91.885z"/>
					</g>
				</g>
				<g>
					<g>
						<path style="fill:#A5CBD6;" d="M180.057,101.082c0,0.854-0.693,1.546-1.546,1.546h-28.748c-0.854,0-1.546-0.693-1.546-1.546
							l0,0c0-0.854,0.692-1.547,1.546-1.547h28.748C179.365,99.536,180.057,100.228,180.057,101.082L180.057,101.082z"/>
					</g>
					<g>
						<path style="fill:#A5CBD6;" d="M146.728,101.082c0,0.854-0.692,1.546-1.546,1.546c-0.853,0-1.546-0.693-1.546-1.546
							c0-0.854,0.693-1.547,1.546-1.547C146.035,99.536,146.728,100.228,146.728,101.082z"/>
					</g>
				</g>
				<g>
					<g>
						<path style="fill:#A5CBD6;" d="M180.057,110.28c0,0.854-0.693,1.546-1.546,1.546h-28.748c-0.854,0-1.546-0.692-1.546-1.546
							l0,0c0-0.854,0.692-1.547,1.546-1.547h28.748C179.365,108.733,180.057,109.426,180.057,110.28L180.057,110.28z"/>
					</g>
					<g>
						<path style="fill:#A5CBD6;" d="M146.728,110.28c0,0.854-0.692,1.546-1.546,1.546c-0.853,0-1.546-0.692-1.546-1.546
							c0-0.854,0.693-1.547,1.546-1.547C146.035,108.733,146.728,109.426,146.728,110.28z"/>
					</g>
				</g>
				<g>
					<g>
						<path style="fill:#A5CBD6;" d="M180.057,132.651c0,0.854-0.693,1.546-1.546,1.546h-28.748c-0.854,0-1.546-0.693-1.546-1.546
							l0,0c0-0.854,0.692-1.547,1.546-1.547h28.748C179.365,131.105,180.057,131.797,180.057,132.651L180.057,132.651z"/>
					</g>
					<g>
						<path style="fill:#A5CBD6;" d="M146.728,132.651c0,0.854-0.692,1.546-1.546,1.546c-0.853,0-1.546-0.693-1.546-1.546
							c0-0.854,0.693-1.547,1.546-1.547C146.035,131.105,146.728,131.797,146.728,132.651z"/>
					</g>
				</g>
				<g>
					<g>
						<path style="fill:#A5CBD6;" d="M180.057,143.194c0,0.854-0.693,1.546-1.546,1.546h-28.748c-0.854,0-1.546-0.693-1.546-1.546
							l0,0c0-0.854,0.692-1.547,1.546-1.547h28.748C179.365,141.647,180.057,142.34,180.057,143.194L180.057,143.194z"/>
					</g>
					<g>
						<path style="fill:#A5CBD6;" d="M146.728,143.194c0,0.854-0.692,1.546-1.546,1.546c-0.853,0-1.546-0.693-1.546-1.546
							c0-0.854,0.693-1.547,1.546-1.547C146.035,141.647,146.728,142.34,146.728,143.194z"/>
					</g>
				</g>
			</g>
		</g>
		<rect x="219.737" y="165.34" style="fill:#0074AD;" width="9.459" height="190.206"/>
		<rect x="219.737" y="165.34" style="fill:#004669;" width="2.792" height="190.206"/>
	</g>
	<g>
		<polygon style="fill:#FFBB94;" points="59.612,319.901 88.112,275.776 79.862,316.651 		"/>
		<g>
			<path style="fill:#FFD0B5;" d="M59.612,319.901l-6.596,44.882l-31.239,29.473l20.649,49.373l42.887-34.945l16.494-1.723
				c11.563-1.208,17.824-4.423,28.283-9.499l16.128-10.256l35.15-3.619l-0.265-2.524c-0.682-6.501-6.164-11.437-12.7-11.437h-49.12
				c-14.74-7.29-13.972-33.209-13.972-33.209V253.76c0-5.142-2.557-9.947-6.822-12.818l-0.104-0.07c-1.691-1.139-4-0.249-4.49,1.73
				l-13.034,61.081L59.612,319.901z"/>
			<g>
				<polygon style="fill:#FFFFFF;" points="42.876,372.692 0,412.279 0,417.674 46.396,464.071 88.573,418.389 				"/>
				<polygon style="fill:#870048;" points="17.96,500 84.729,433.232 30.417,378.921 0,409.338 0,500 				"/>
				<path style="fill:#FFFFFF;" d="M68.933,432.23c-1.613,1.613-1.614,4.227-0.001,5.841c1.613,1.612,4.227,1.612,5.84-0.001
					c1.613-1.612,1.613-4.227,0-5.84C73.159,430.617,70.546,430.617,68.933,432.23z"/>
			</g>
		</g>
	</g>
</g>
</svg>
